<svg width="62" height="62" viewBox="0 0 62 62" fill="none" xmlns="http://www.w3.org/2000/svg">
<circle cx="31" cy="31" r="31" fill="white"/>
<path d="M43.4844 37.8847H20.5156C20.3867 37.8847 20.2812 37.9902 20.2812 38.1191V39.7597C20.2812 39.8886 20.3867 39.9941 20.5156 39.9941H43.4844C43.6133 39.9941 43.7188 39.8886 43.7188 39.7597V38.1191C43.7188 37.9902 43.6133 37.8847 43.4844 37.8847ZM21.8545 34.2168L23.0176 35.374C23.1084 35.4648 23.2578 35.4648 23.3486 35.374L30.2246 28.5215L33.084 31.372C33.2601 31.5466 33.4981 31.6445 33.7461 31.6445C33.9941 31.6445 34.232 31.5466 34.4082 31.372L42.1484 23.6611C42.2393 23.5703 42.2393 23.4209 42.1484 23.33L40.9854 22.1699C40.9413 22.1263 40.8818 22.1018 40.8198 22.1018C40.7578 22.1018 40.6983 22.1263 40.6543 22.1699L33.749 29.0547L30.8867 26.2041C30.7106 26.0295 30.4726 25.9316 30.2246 25.9316C29.9766 25.9316 29.7387 26.0295 29.5625 26.2041L21.8545 33.8857C21.8326 33.9074 21.8152 33.9331 21.8033 33.9615C21.7914 33.99 21.7853 34.0204 21.7853 34.0512C21.7853 34.082 21.7914 34.1125 21.8033 34.1409C21.8152 34.1694 21.8326 34.1951 21.8545 34.2168Z" fill="#F5070F"/>
</svg>
