<svg width="63" height="63" viewBox="0 0 63 63" fill="none" xmlns="http://www.w3.org/2000/svg">
<circle cx="31.9848" cy="31.5531" r="31" fill="white"/>
<path d="M30.842 20.2745C31.1801 20.0345 31.5846 19.9056 31.9992 19.9056C32.4139 19.9056 32.8183 20.0345 33.1565 20.2745L41.9345 26.5025C43.025 27.2765 42.479 28.9955 41.1425 28.9985H22.8605C21.5195 28.9985 20.9705 27.278 22.0655 26.5025L30.842 20.2745ZM32 25.811C32.3316 25.811 32.6496 25.6793 32.884 25.4448C33.1185 25.2103 33.2502 24.8923 33.2502 24.5608C33.2502 24.2292 33.1185 23.9112 32.884 23.6767C32.6496 23.4422 32.3316 23.3105 32 23.3105C31.6684 23.3105 31.3504 23.4422 31.1159 23.6767C30.8815 23.9112 30.7497 24.2292 30.7497 24.5608C30.7497 24.8923 30.8815 25.2103 31.1159 25.4448C31.3504 25.6793 31.6684 25.811 32 25.811ZM23.75 30.5V36.5H26.75V30.5H23.75ZM21.5 41.249C21.5 39.4535 22.955 37.9985 24.749 37.9985H39.2495C40.1115 37.9989 40.938 38.3415 41.5475 38.951C42.157 39.5605 42.4996 40.387 42.5 41.249V41.7485C42.5 41.9474 42.421 42.1382 42.2803 42.2788C42.1397 42.4195 41.9489 42.4985 41.75 42.4985H22.25C22.0511 42.4985 21.8603 42.4195 21.7197 42.2788C21.579 42.1382 21.5 41.9474 21.5 41.7485V41.249ZM40.25 30.4985V36.4985H37.25V30.5H40.25V30.4985ZM35.75 30.4985V36.4985H32.75V30.5H35.75V30.4985ZM31.25 30.4985V36.4985H28.25V30.5H31.25V30.4985Z" fill="#F5070F"/>
</svg>
