<svg width="63" height="64" viewBox="0 0 63 64" fill="none" xmlns="http://www.w3.org/2000/svg">
<circle cx="31.603" cy="31.8329" r="31.2798" fill="white"/>
<g clip-path="url(#clip0_668_813)">
<path d="M42.109 28.951L43.594 31.415C43.8605 31.9197 43.9998 32.4818 43.9998 33.0525C43.9998 33.6232 43.8605 34.1853 43.594 34.69L39.089 42.407C38.8086 42.9452 38.3866 43.3966 37.8685 43.7126C37.3504 44.0286 36.7559 44.1971 36.149 44.2H27.83C27.2232 44.1969 26.6287 44.0283 26.1107 43.7123C25.5926 43.3964 25.1706 42.945 24.89 42.407L23.335 39.775L29.474 34.08L33.921 36.658C34.1449 36.8118 34.4181 36.8768 34.6872 36.8402C34.9564 36.8036 35.2023 36.668 35.377 36.46L42.109 28.951ZM28.719 29.579L21.99 37.15L20.406 34.725C20.1394 34.2212 20 33.6599 20 33.09C20 32.52 20.1394 31.9587 20.406 31.455L25.158 23.59C25.4394 23.0524 25.862 22.6017 26.3803 22.2863C26.8987 21.9709 27.4932 21.8028 28.1 21.8H36.108C37.336 21.8 38.465 22.487 39.05 23.59L40.666 26.312L34.649 31.904L30.217 29.33C29.9834 29.1701 29.697 29.1066 29.4177 29.1528C29.1384 29.1991 28.8877 29.3514 28.718 29.578L28.719 29.579Z" fill="#F5070F"/>
</g>
<defs>
<clipPath id="clip0_668_813">
<rect width="24" height="24" fill="white" transform="translate(20 21)"/>
</clipPath>
</defs>
</svg>
