<svg width="62" height="62" viewBox="0 0 62 62" fill="none" xmlns="http://www.w3.org/2000/svg">
<circle cx="31" cy="31" r="31" fill="white"/>
<path d="M27.4992 37.263L25.7492 35.5122L24.5146 36.7459L27.4992 39.7305L32.7492 34.4805L31.5154 33.2468L27.4992 37.263ZM42.3742 43.2305H38.8742V41.4805H42.3742V30.9805H38.8742V23.9805C38.873 23.0526 38.5039 22.1631 37.8478 21.5069C37.1917 20.8508 36.3021 20.4817 35.3742 20.4805V18.7305C36.7661 18.7322 38.1005 19.2858 39.0847 20.27C40.0689 21.2542 40.6226 22.5886 40.6242 23.9805V29.2305H42.3742C42.8382 29.231 43.283 29.4155 43.6111 29.7436C43.9392 30.0717 44.1237 30.5165 44.1242 30.9805V41.4805C44.1237 41.9445 43.9392 42.3894 43.6111 42.7175C43.283 43.0455 42.8382 43.2301 42.3742 43.2305Z" fill="#F5070F"/>
<path d="M35.3742 29.2305H33.6242V23.9805C33.6242 22.5881 33.0711 21.2528 32.0865 20.2682C31.102 19.2837 29.7666 18.7305 28.3742 18.7305C26.9818 18.7305 25.6465 19.2837 24.6619 20.2682C23.6773 21.2528 23.1242 22.5881 23.1242 23.9805V29.2305H21.3742C20.9101 29.2305 20.465 29.4149 20.1368 29.7431C19.8086 30.0713 19.6242 30.5164 19.6242 30.9805V41.4805C19.6242 41.9447 19.8086 42.3898 20.1368 42.718C20.465 43.0462 20.9101 43.2305 21.3742 43.2305H35.3742C35.8383 43.2305 36.2835 43.0462 36.6116 42.718C36.9398 42.3898 37.1242 41.9447 37.1242 41.4805V30.9805C37.1242 30.5164 36.9398 30.0713 36.6116 29.7431C36.2835 29.4149 35.8383 29.2305 35.3742 29.2305ZM24.8742 23.9805C24.8742 23.0523 25.243 22.162 25.8993 21.5057C26.5557 20.8493 27.446 20.4805 28.3742 20.4805C29.3025 20.4805 30.1927 20.8493 30.8491 21.5057C31.5055 22.162 31.8742 23.0523 31.8742 23.9805V29.2305H24.8742V23.9805ZM35.3742 41.4805H21.3742V30.9805H35.3742V41.4805Z" fill="#F5070F"/>
</svg>
