<svg width="30" height="30" viewBox="0 0 30 30" fill="none" xmlns="http://www.w3.org/2000/svg">
<path d="M26.4844 21.8847H3.51562C3.38672 21.8847 3.28125 21.9902 3.28125 22.1191V23.7597C3.28125 23.8886 3.38672 23.9941 3.51562 23.9941H26.4844C26.6133 23.9941 26.7188 23.8886 26.7188 23.7597V22.1191C26.7188 21.9902 26.6133 21.8847 26.4844 21.8847ZM4.85449 18.2168L6.01758 19.374C6.1084 19.4648 6.25781 19.4648 6.34863 19.374L13.2246 12.5215L16.084 15.372C16.2601 15.5466 16.4981 15.6445 16.7461 15.6445C16.9941 15.6445 17.232 15.5466 17.4082 15.372L25.1484 7.6611C25.2393 7.57028 25.2393 7.42087 25.1484 7.33005L23.9854 6.16989C23.9413 6.12627 23.8818 6.10181 23.8198 6.10181C23.7578 6.10181 23.6983 6.12627 23.6543 6.16989L16.749 13.0547L13.8867 10.2041C13.7106 10.0295 13.4726 9.93161 13.2246 9.93161C12.9766 9.93161 12.7387 10.0295 12.5625 10.2041L4.85449 17.8857C4.83258 17.9074 4.81518 17.9331 4.8033 17.9615C4.79143 17.99 4.78531 18.0204 4.78531 18.0512C4.78531 18.082 4.79143 18.1125 4.8033 18.1409C4.81518 18.1694 4.83258 18.1951 4.85449 18.2168Z" fill="#F5070F"/>
</svg>
