<svg width="78" height="110" viewBox="0 0 78 110" fill="none" xmlns="http://www.w3.org/2000/svg">
<path d="M49.5428 101.477C50.0784 101.396 50.2793 101.477 50.4801 101.396C62.7319 92.5068 71.0337 79.9007 74.1803 62.9308C74.9837 58.648 74.8498 54.2035 73.9125 49.8398C71.971 40.466 65.4769 34.0013 57.5098 33.4356C53.359 33.1124 49.342 33.678 45.7267 36.4255C45.4589 38.769 45.258 41.1124 44.8563 43.2943C44.1868 46.8499 42.647 49.759 39.9021 51.5368C37.8936 52.9105 35.8851 52.9105 34.8139 51.6176C33.4079 49.9206 33.4079 47.658 34.2783 45.7994C35.4834 43.2135 36.9563 40.7892 38.4961 38.5266C39.5004 37.072 40.8394 35.8599 42.0444 34.6477C40.9063 25.5164 33.7427 21.6375 25.1731 25.4355C24.9053 26.7285 24.6375 28.1022 24.3028 29.3952C22.9638 34.1629 20.4866 37.7993 16.4696 39.4963C14.9298 40.1427 13.256 40.3852 11.917 38.6882C10.9128 37.3952 10.9128 35.1326 11.984 32.8699C13.7247 29.3144 16.3357 26.8093 19.1476 24.6275C20.1519 23.9002 21.1561 23.1729 22.1604 22.5264C20.8214 8.38489 10.3103 -1.6354 0 4.02122C0.0669498 2.9707 -4.08219e-06 2.08181 0.267795 1.59695C0.602544 1.03129 1.33899 0.708058 1.94154 0.54644C7.63227 -0.7465 12.9213 0.0615864 17.273 5.07173C20.5536 8.78893 22.7629 13.3142 24.2358 18.486C24.4367 19.2133 24.6375 19.9405 24.9053 20.6678C24.9053 20.7486 25.0392 20.8294 25.307 21.0719C25.9095 20.9911 26.646 20.9911 27.3825 20.8294C36.3537 19.1325 41.0402 22.0416 45.1911 32.1427C45.9945 31.8194 46.9318 31.4962 47.8021 31.0922C52.9573 28.9911 58.1124 28.8295 63.3345 30.9305C71.8371 34.3245 77.327 43.1327 77.9295 54.2843C78.2643 60.3449 77.3939 66.1632 75.5863 71.8198C71.1676 85.4765 63.937 96.224 53.0912 103.254C52.5556 103.658 51.953 103.982 51.4174 104.386C51.3505 104.467 51.2835 104.628 51.0827 105.113C53.359 105.759 55.5014 105.517 57.6438 105.355C59.7192 105.275 61.8616 105.032 64.1379 104.871C63.937 106.972 62.9997 107.78 61.8616 108.265C60.5226 108.749 59.1836 109.396 57.8446 109.477C54.2293 109.638 50.5471 109.719 46.8648 109.477C43.986 109.234 43.1826 107.376 44.4546 104.547C47.1996 98.5675 50.0115 92.5876 52.8234 86.6078C53.292 85.6381 53.8946 84.83 54.631 83.6987C55.9031 85.4765 55.3675 86.7694 54.8988 87.9815C53.0242 92.3452 51.3505 96.7089 49.5428 101.477ZM13.9255 36.2639C18.5451 35.5366 21.4239 31.9811 21.6248 26.9709C18.5451 29.3952 15.5993 31.577 13.9255 36.2639ZM36.5546 48.7893C40.5046 47.658 42.3792 44.4256 41.9775 39.4963C39.4334 42.0822 37.2241 44.5064 36.5546 48.7893Z" fill="#FF0810"/>
</svg>
